<svg xmlns="http://www.w3.org/2000/svg" viewBox="0 0 344.28 159.67"><defs><style>.cls-1{fill:#ffbc00;}.cls-2{fill:#404040;}.cls-3{fill:#444037;}.cls-4{fill:#1466cc;}.cls-5{fill:#ff0d3a;}</style></defs><title>Logo</title><g id="Layer_2" data-name="Layer 2"><g id="Layer_1-2" data-name="Layer 1"><path class="cls-1" d="M2.4,25.9h26q8.51,0,12.74,4.74t4.24,13.49q0,9-4.62,14.06T26.71,63.25H18.13v22H2.4ZM18.13,51.22H22q4.53,0,6.36-1.84a6.41,6.41,0,0,0,1.83-4.72,7.25,7.25,0,0,0-1.59-4.74Q27,38,22.59,38H18.13Z"/><path class="cls-1" d="M89.84,67.87H61.62a11.83,11.83,0,0,0,1.83,5.92,6.3,6.3,0,0,0,5.33,2.79,7.11,7.11,0,0,0,3.94-1.21,10.05,10.05,0,0,0,2.46-2.71L89,74.15q-3.18,6.48-7.68,9.3t-12.9,2.82q-7.29,0-11.48-2.41a18.28,18.28,0,0,1-6.93-7.66,26.22,26.22,0,0,1-2.75-12.34q0-10.09,5.51-16.33t15.23-6.24q7.88,0,12.45,2.79a17.73,17.73,0,0,1,7,8.1Q89.84,57.5,89.84,66ZM75.52,60q-.42-4.78-2.2-6.85a5.89,5.89,0,0,0-4.69-2.07,6.11,6.11,0,0,0-5.36,3.12A12.75,12.75,0,0,0,61.66,60Z"/><path class="cls-1" d="M94.67,42.27h13.17v7q1.9-4.58,3.92-6.3a7.44,7.44,0,0,1,5-1.72,13.25,13.25,0,0,1,6.81,2.27l-4.36,11.75a9.78,9.78,0,0,0-3.94-1.22A4.72,4.72,0,0,0,111,56.77q-2.18,3.77-2.18,14.1V85.29H94.67Z"/><path class="cls-1" d="M138.24,56.2l-13.45-1.66A19.52,19.52,0,0,1,127,48a12.87,12.87,0,0,1,4.13-4.11A15.57,15.57,0,0,1,136.44,42a36.82,36.82,0,0,1,7.33-.69,50,50,0,0,1,10.17.83,12.34,12.34,0,0,1,6.4,3.46,12.53,12.53,0,0,1,2.84,5.17,21.52,21.52,0,0,1,1,6.38v19a26.81,26.81,0,0,0,.33,4.76,23.72,23.72,0,0,0,1.44,4.4H152.76a16.86,16.86,0,0,1-1-2.53,21.24,21.24,0,0,1-.48-2.73,18.44,18.44,0,0,1-5.5,4.46,19.94,19.94,0,0,1-8.68,1.78q-6.57,0-10-3.56a12.24,12.24,0,0,1-3.41-8.79,12.75,12.75,0,0,1,2.46-8.06q2.45-3.16,9.06-4.7,7.92-1.86,10.27-2.61a43.28,43.28,0,0,0,5-2q0-3-1.07-4.25T145.6,51.1a8.6,8.6,0,0,0-5.19,1.3A7.22,7.22,0,0,0,138.24,56.2Zm12.21,8.67A59.24,59.24,0,0,1,144.39,67q-4.29,1.34-5.43,2.63a4.35,4.35,0,0,0,3.39,7.46,7.79,7.79,0,0,0,4.37-1.34,7.58,7.58,0,0,0,2.87-3.26,12.54,12.54,0,0,0,.85-5Z"/><path class="cls-2" d="M171.63,25.9h20.6L200.18,62l7.89-36.14h20.59V85.29H215.82V40l-9.88,45.29H194.33L184.46,40V85.29H171.63Z"/><path class="cls-2" d="M248.77,56.2l-13.45-1.66a19.5,19.5,0,0,1,2.2-6.5,12.88,12.88,0,0,1,4.13-4.11A15.57,15.57,0,0,1,247,42a36.83,36.83,0,0,1,7.33-.69,50,50,0,0,1,10.17.83,12.34,12.34,0,0,1,6.4,3.46,12.54,12.54,0,0,1,2.83,5.17,21.52,21.52,0,0,1,1,6.38v19a26.7,26.7,0,0,0,.33,4.76,23.71,23.71,0,0,0,1.43,4.4H263.29a17.07,17.07,0,0,1-1-2.53,21.59,21.59,0,0,1-.48-2.73,18.43,18.43,0,0,1-5.5,4.46,19.93,19.93,0,0,1-8.68,1.78q-6.57,0-10-3.56a12.24,12.24,0,0,1-3.41-8.79,12.75,12.75,0,0,1,2.46-8.06q2.45-3.16,9.06-4.7,7.92-1.86,10.27-2.61a43.34,43.34,0,0,0,5-2q0-3-1.07-4.25t-3.77-1.22a8.6,8.6,0,0,0-5.19,1.3A7.22,7.22,0,0,0,248.77,56.2ZM261,64.87A59.07,59.07,0,0,1,254.92,67q-4.29,1.34-5.43,2.63a4.35,4.35,0,0,0,3.39,7.46,7.78,7.78,0,0,0,4.37-1.34,7.58,7.58,0,0,0,2.87-3.26,12.52,12.52,0,0,0,.85-5Z"/><path class="cls-2" d="M278.26,42.27H295l5.83,12,6.79-12H323.1l-12.53,20.5L324,85.29H307.58l-6.79-13.86-8,13.86H277.57L290.9,62.77Z"/><path class="cls-3" d="M30.57,13.24V.22H34.5L36.86,9.1,39.2.22h3.94v13H40.7V3L38.11,13.24H35.58L33,3V13.24Z"/><path class="cls-3" d="M45.15,8.39A5.1,5.1,0,0,1,45.77,6,4.2,4.2,0,0,1,47.5,4.21,5.14,5.14,0,0,1,50,3.59,4.71,4.71,0,0,1,53.52,5,4.8,4.8,0,0,1,54.88,8.5,4.86,4.86,0,0,1,53.5,12,4.66,4.66,0,0,1,50,13.45a5.47,5.47,0,0,1-2.47-.59,4,4,0,0,1-1.79-1.72A5.72,5.72,0,0,1,45.15,8.39Zm2.56.13a3.13,3.13,0,0,0,.67,2.15,2.18,2.18,0,0,0,3.28,0,3.17,3.17,0,0,0,.66-2.17,3.11,3.11,0,0,0-.66-2.13,2.18,2.18,0,0,0-3.28,0A3.13,3.13,0,0,0,47.71,8.52Z"/><path class="cls-3" d="M65.41,13.24h-2.5V8.42a7.5,7.5,0,0,0-.16-2,1.39,1.39,0,0,0-.52-.7,1.48,1.48,0,0,0-.87-.25,2,2,0,0,0-1.16.36,1.79,1.79,0,0,0-.71.94A8.14,8.14,0,0,0,59.31,9v4.27H56.82V3.81h2.32V5.19a3.86,3.86,0,0,1,4.62-1.3,2.53,2.53,0,0,1,1,.76,2.76,2.76,0,0,1,.49,1,7.79,7.79,0,0,1,.14,1.68Z"/><path class="cls-3" d="M73.4,10.24l2.49.42a4.08,4.08,0,0,1-1.51,2.08,4.45,4.45,0,0,1-2.59.71,4.22,4.22,0,0,1-3.64-1.61,5.4,5.4,0,0,1-.93-3.25,5.21,5.21,0,0,1,1.22-3.67,4,4,0,0,1,3.1-1.33A4.19,4.19,0,0,1,74.86,5,6.15,6.15,0,0,1,76,9.24H69.77a2.52,2.52,0,0,0,.6,1.73,1.88,1.88,0,0,0,1.44.62,1.53,1.53,0,0,0,1-.32A2,2,0,0,0,73.4,10.24Zm.14-2.52A2.41,2.41,0,0,0,73,6.07a1.71,1.71,0,0,0-1.29-.56,1.73,1.73,0,0,0-1.35.59,2.3,2.3,0,0,0-.52,1.62Z"/><path class="cls-3" d="M76.87,3.81h2.65l2.26,6.69L84,3.81h2.58l-3.33,9.07-.59,1.64A6.67,6.67,0,0,1,82,15.78a2.71,2.71,0,0,1-.68.71,3,3,0,0,1-.95.42,4.94,4.94,0,0,1-1.27.15,6.6,6.6,0,0,1-1.41-.15l-.22-2a5.5,5.5,0,0,0,1.06.12,1.56,1.56,0,0,0,1.29-.51,3.51,3.51,0,0,0,.64-1.3Z"/><path class="cls-3" d="M93.25,13.24V.22h5.53a9.47,9.47,0,0,1,3,.35,3,3,0,0,1,1.51,1.25,3.75,3.75,0,0,1,.57,2.05A3.48,3.48,0,0,1,103,6.29a4.13,4.13,0,0,1-2.57,1.2,6.15,6.15,0,0,1,1.41,1.09,14.86,14.86,0,0,1,1.5,2.11l1.59,2.54H101.8L99.9,10.4a18.24,18.24,0,0,0-1.38-1.91A2,2,0,0,0,97.73,8a4.33,4.33,0,0,0-1.32-.15h-.53v5.43Zm2.63-7.51h1.94a10.06,10.06,0,0,0,2.36-.16,1.41,1.41,0,0,0,.74-.55,1.7,1.7,0,0,0,.27-1A1.55,1.55,0,0,0,100.83,3a1.61,1.61,0,0,0-1-.51q-.32,0-1.92,0H95.87Z"/><path class="cls-3" d="M111.81,10.24l2.49.42a4.08,4.08,0,0,1-1.51,2.08,4.45,4.45,0,0,1-2.59.71,4.22,4.22,0,0,1-3.64-1.61,5.4,5.4,0,0,1-.93-3.25,5.21,5.21,0,0,1,1.22-3.67,4,4,0,0,1,3.1-1.33A4.19,4.19,0,0,1,113.27,5a6.15,6.15,0,0,1,1.16,4.26h-6.25a2.52,2.52,0,0,0,.6,1.73,1.88,1.88,0,0,0,1.44.62,1.53,1.53,0,0,0,1-.32A2,2,0,0,0,111.81,10.24ZM112,7.71a2.41,2.41,0,0,0-.56-1.65,1.71,1.71,0,0,0-1.29-.56,1.73,1.73,0,0,0-1.35.59,2.3,2.3,0,0,0-.52,1.62Z"/><path class="cls-3" d="M116.27,3.81h2.3V5.1a3.7,3.7,0,0,1,2.94-1.5,3.18,3.18,0,0,1,1.57.37,2.88,2.88,0,0,1,1.09,1.13A4.37,4.37,0,0,1,125.52,4a3.3,3.3,0,0,1,1.54-.37,3.42,3.42,0,0,1,1.76.42,2.59,2.59,0,0,1,1.07,1.24,5.4,5.4,0,0,1,.26,2v6h-2.49V7.85A4,4,0,0,0,127.39,6a1.18,1.18,0,0,0-1.06-.53,1.7,1.7,0,0,0-1,.32,1.78,1.78,0,0,0-.67.94,6.77,6.77,0,0,0-.2,1.95v4.53H122V8.07a7.1,7.1,0,0,0-.13-1.78,1.13,1.13,0,0,0-.41-.59,1.31,1.31,0,0,0-.76-.2,1.82,1.82,0,0,0-1,.31,1.7,1.7,0,0,0-.66.9,6.64,6.64,0,0,0-.2,1.94v4.58h-2.5Z"/><path class="cls-3" d="M132.63,2.53V.22h2.5V2.53Zm0,10.71V3.81h2.5v9.43Z"/><path class="cls-3" d="M142,3.81v2H140.3V9.6a9.67,9.67,0,0,0,0,1.34.55.55,0,0,0,.22.32.7.7,0,0,0,.42.12,3.25,3.25,0,0,0,1-.24l.21,1.94a5,5,0,0,1-2,.37,3.13,3.13,0,0,1-1.22-.23,1.78,1.78,0,0,1-.79-.59,2.33,2.33,0,0,1-.35-1,12,12,0,0,1-.08-1.76V5.8h-1.15v-2h1.15V1.93L140.3.48V3.81Z"/><path class="cls-3" d="M148.06,3.81v2h-1.71V9.6a9.67,9.67,0,0,0,0,1.34.55.55,0,0,0,.22.32.7.7,0,0,0,.42.12,3.25,3.25,0,0,0,1-.24l.21,1.94a5,5,0,0,1-2,.37,3.13,3.13,0,0,1-1.22-.23,1.78,1.78,0,0,1-.79-.59,2.33,2.33,0,0,1-.35-1,12,12,0,0,1-.08-1.76V5.8H142.7v-2h1.15V1.93l2.5-1.46V3.81Z"/><path class="cls-3" d="M151.65,6.68l-2.26-.41a3.52,3.52,0,0,1,1.31-2,4.81,4.81,0,0,1,2.77-.66A6,6,0,0,1,156,4a2.48,2.48,0,0,1,1.15,1,5.13,5.13,0,0,1,.33,2.23l0,2.91a10.09,10.09,0,0,0,.12,1.83,5.31,5.31,0,0,0,.45,1.26h-2.47c-.06-.17-.14-.41-.24-.74,0-.15-.07-.25-.09-.29a4.49,4.49,0,0,1-1.37.93,3.92,3.92,0,0,1-1.55.31,3.21,3.21,0,0,1-2.3-.79,2.62,2.62,0,0,1-.84-2,2.68,2.68,0,0,1,.38-1.42,2.49,2.49,0,0,1,1.07-1,8.4,8.4,0,0,1,2-.58A13.56,13.56,0,0,0,155,7.08V6.84a1.29,1.29,0,0,0-.36-1,2.13,2.13,0,0,0-1.34-.31,1.78,1.78,0,0,0-1,.26A1.83,1.83,0,0,0,151.65,6.68Zm3.34,2q-.48.16-1.52.38a4.58,4.58,0,0,0-1.36.43,1,1,0,0,0-.49.88,1.22,1.22,0,0,0,.39.91,1.36,1.36,0,0,0,1,.38,2.16,2.16,0,0,0,1.29-.44,1.56,1.56,0,0,0,.59-.83,4.91,4.91,0,0,0,.1-1.22Z"/><path class="cls-3" d="M168.48,13.24H166V8.42a7.5,7.5,0,0,0-.16-2,1.39,1.39,0,0,0-.52-.7,1.48,1.48,0,0,0-.87-.25,2,2,0,0,0-1.16.36,1.79,1.79,0,0,0-.71.94A8.14,8.14,0,0,0,162.38,9v4.27h-2.49V3.81h2.32V5.19a3.86,3.86,0,0,1,4.62-1.3,2.53,2.53,0,0,1,1,.76,2.76,2.76,0,0,1,.49,1,7.79,7.79,0,0,1,.14,1.68Z"/><path class="cls-3" d="M179.23,6.6,176.77,7a1.79,1.79,0,0,0-.56-1.11,1.71,1.71,0,0,0-1.14-.37,1.87,1.87,0,0,0-1.49.64A3.3,3.3,0,0,0,173,8.35a3.81,3.81,0,0,0,.56,2.37,1.85,1.85,0,0,0,1.51.69,1.68,1.68,0,0,0,1.16-.4,2.44,2.44,0,0,0,.64-1.39l2.45.42a4.34,4.34,0,0,1-1.46,2.55,4.53,4.53,0,0,1-2.9.86,4.32,4.32,0,0,1-3.3-1.3,5.06,5.06,0,0,1-1.23-3.61,5.07,5.07,0,0,1,1.23-3.64A4.38,4.38,0,0,1,175,3.59a4.56,4.56,0,0,1,2.74.74A4.11,4.11,0,0,1,179.23,6.6Z"/><path class="cls-3" d="M186.58,10.24l2.49.42a4.08,4.08,0,0,1-1.51,2.08,4.45,4.45,0,0,1-2.59.71,4.22,4.22,0,0,1-3.64-1.61,5.4,5.4,0,0,1-.93-3.25,5.21,5.21,0,0,1,1.22-3.67,4,4,0,0,1,3.1-1.33A4.19,4.19,0,0,1,188,5a6.15,6.15,0,0,1,1.16,4.26h-6.25a2.52,2.52,0,0,0,.6,1.73,1.89,1.89,0,0,0,1.44.62,1.53,1.53,0,0,0,1-.32A2,2,0,0,0,186.58,10.24Zm.14-2.52a2.4,2.4,0,0,0-.56-1.65,1.71,1.71,0,0,0-1.3-.56,1.73,1.73,0,0,0-1.35.59A2.3,2.3,0,0,0,183,7.71Z"/><path class="cls-3" d="M195.64,9l2.56-.25a3.12,3.12,0,0,0,.94,1.89,2.83,2.83,0,0,0,1.9.6,2.93,2.93,0,0,0,1.91-.54,1.6,1.6,0,0,0,.64-1.26,1.19,1.19,0,0,0-.27-.79,2.17,2.17,0,0,0-.95-.56q-.46-.16-2.1-.57a7.15,7.15,0,0,1-3-1.29,3.39,3.39,0,0,1-1.2-2.62,3.35,3.35,0,0,1,.56-1.86A3.53,3.53,0,0,1,198.29.45,6.51,6.51,0,0,1,200.86,0a5.49,5.49,0,0,1,3.69,1.07,3.79,3.79,0,0,1,1.3,2.87l-2.63.12a2.23,2.23,0,0,0-.72-1.44,2.65,2.65,0,0,0-1.66-.44,3,3,0,0,0-1.79.47,1,1,0,0,0-.42.81,1,1,0,0,0,.39.79,6.9,6.9,0,0,0,2.41.87,12.74,12.74,0,0,1,2.84.94,3.65,3.65,0,0,1,1.44,1.32,3.87,3.87,0,0,1,.52,2.07,3.84,3.84,0,0,1-.62,2.1A3.73,3.73,0,0,1,203.84,13a7.38,7.38,0,0,1-2.83.48,5.63,5.63,0,0,1-3.79-1.14A5,5,0,0,1,195.64,9Z"/><path class="cls-3" d="M213.87,10.24l2.49.42a4.08,4.08,0,0,1-1.51,2.08,4.45,4.45,0,0,1-2.59.71,4.22,4.22,0,0,1-3.64-1.61,5.4,5.4,0,0,1-.93-3.25,5.21,5.21,0,0,1,1.22-3.67A4,4,0,0,1,212,3.59,4.19,4.19,0,0,1,215.33,5a6.15,6.15,0,0,1,1.16,4.26h-6.25a2.52,2.52,0,0,0,.6,1.73,1.89,1.89,0,0,0,1.44.62,1.53,1.53,0,0,0,1-.32A2,2,0,0,0,213.87,10.24ZM214,7.71a2.4,2.4,0,0,0-.56-1.65,1.71,1.71,0,0,0-1.3-.56,1.73,1.73,0,0,0-1.35.59,2.3,2.3,0,0,0-.52,1.62Z"/><path class="cls-3" d="M220.91,13.24h-2.5V3.81h2.32V5.15A4,4,0,0,1,221.8,3.9a2,2,0,0,1,1.08-.3,3.17,3.17,0,0,1,1.64.47l-.77,2.18a2.19,2.19,0,0,0-1.17-.41,1.38,1.38,0,0,0-.89.29,2,2,0,0,0-.57,1,14.79,14.79,0,0,0-.21,3.16Z"/><path class="cls-3" d="M228.19,13.24l-3.8-9.43H227l1.78,4.81.51,1.61q.21-.61.26-.81c.08-.27.17-.53.27-.8l1.79-4.81h2.57l-3.75,9.43Z"/><path class="cls-3" d="M235.71,2.53V.22h2.49V2.53Zm0,10.71V3.81h2.49v9.43Z"/><path class="cls-3" d="M249,6.6,246.52,7A1.79,1.79,0,0,0,246,5.93a1.71,1.71,0,0,0-1.14-.37,1.87,1.87,0,0,0-1.49.64,3.3,3.3,0,0,0-.55,2.15,3.81,3.81,0,0,0,.56,2.37,1.85,1.85,0,0,0,1.51.69A1.68,1.68,0,0,0,246,11a2.44,2.44,0,0,0,.64-1.39l2.45.42a4.34,4.34,0,0,1-1.46,2.55,4.53,4.53,0,0,1-2.9.86,4.32,4.32,0,0,1-3.3-1.3,5.06,5.06,0,0,1-1.23-3.61,5.07,5.07,0,0,1,1.23-3.64,4.38,4.38,0,0,1,3.34-1.3,4.56,4.56,0,0,1,2.74.74A4.11,4.11,0,0,1,249,6.6Z"/><path class="cls-3" d="M256.33,10.24l2.49.42a4.08,4.08,0,0,1-1.51,2.08,4.45,4.45,0,0,1-2.59.71,4.22,4.22,0,0,1-3.64-1.61,5.4,5.4,0,0,1-.93-3.25,5.21,5.21,0,0,1,1.22-3.67,4,4,0,0,1,3.1-1.33A4.19,4.19,0,0,1,257.79,5,6.15,6.15,0,0,1,259,9.24H252.7a2.52,2.52,0,0,0,.6,1.73,1.89,1.89,0,0,0,1.44.62,1.53,1.53,0,0,0,1-.32A2,2,0,0,0,256.33,10.24Zm.14-2.52a2.4,2.4,0,0,0-.56-1.65,1.71,1.71,0,0,0-1.3-.56,1.73,1.73,0,0,0-1.35.59,2.3,2.3,0,0,0-.52,1.62Z"/><path class="cls-3" d="M260.11,10.55l2.5-.38a1.83,1.83,0,0,0,.65,1.11,2.19,2.19,0,0,0,1.37.38,2.46,2.46,0,0,0,1.46-.36.79.79,0,0,0,.33-.67.66.66,0,0,0-.18-.47,2,2,0,0,0-.83-.33,13.45,13.45,0,0,1-3.83-1.22,2.43,2.43,0,0,1-1.12-2.12,2.61,2.61,0,0,1,1-2.06,4.51,4.51,0,0,1,3-.83,5.24,5.24,0,0,1,2.88.63,3.23,3.23,0,0,1,1.3,1.86l-2.35.43a1.45,1.45,0,0,0-.57-.84,2.09,2.09,0,0,0-1.2-.29,2.72,2.72,0,0,0-1.41.28.59.59,0,0,0-.28.51.55.55,0,0,0,.25.45,9.33,9.33,0,0,0,2.33.7,6.94,6.94,0,0,1,2.78,1.11,2.31,2.31,0,0,1,.78,1.86,2.85,2.85,0,0,1-1.08,2.23,4.8,4.8,0,0,1-3.21.93,5.25,5.25,0,0,1-3-.78A3.6,3.6,0,0,1,260.11,10.55Z"/><polygon class="cls-1" points="331.62 51.87 336.85 57.12 344.15 55.79 340.76 62.4 344.28 68.92 336.96 67.75 331.83 73.11 330.69 65.78 324.01 62.57 330.62 59.22 331.62 51.87"/><polygon class="cls-1" points="296.34 19.89 302.69 23.72 309.45 20.65 307.77 27.88 312.77 33.36 305.38 34 301.72 40.45 298.83 33.62 291.56 32.13 297.17 27.26 296.34 19.89"/><polygon class="cls-1" points="302.52 85.25 305.31 92.11 312.56 93.71 306.89 98.49 307.62 105.87 301.31 101.96 294.52 104.93 296.29 97.73 291.37 92.18 298.76 91.64 302.52 85.25"/><path class="cls-4" d="M263.1,92.12C104.78,91.91,35.34,102.79,32.84,103.2S11.08,122.86,0,144C76.76,107.39,191.78,96.93,263.1,92.12Z"/><path class="cls-5" d="M235.28,99S124.86,113.66,26.14,159.67c0,0,6.69-20.91,12.55-23.42C42,135,112.73,105.3,235.28,99Z"/></g></g></svg>